<svg width="23" height="23" viewBox="0 0 23 23" fill="none" xmlns="http://www.w3.org/2000/svg">
<mask id="path-1-inside-1_209_4987" fill="white">
<path d="M9.61696 6.95322C9.52739 7.04279 9.47082 7.16535 9.47082 7.30677C9.47082 7.58019 9.69709 7.80646 9.97051 7.80646L15.1937 7.80646L15.1937 13.0296C15.1937 13.303 15.4199 13.5293 15.6934 13.5293C15.9668 13.5293 16.193 13.303 16.193 13.0296L16.193 7.30677C16.193 7.03336 15.9668 6.80709 15.6934 6.80709L9.97051 6.80709C9.82909 6.80709 9.70652 6.86365 9.61696 6.95322Z"/>
</mask>
<path d="M9.61696 6.95322C9.52739 7.04279 9.47082 7.16535 9.47082 7.30677C9.47082 7.58019 9.69709 7.80646 9.97051 7.80646L15.1937 7.80646L15.1937 13.0296C15.1937 13.303 15.4199 13.5293 15.6934 13.5293C15.9668 13.5293 16.193 13.303 16.193 13.0296L16.193 7.30677C16.193 7.03336 15.9668 6.80709 15.6934 6.80709L9.97051 6.80709C9.82909 6.80709 9.70652 6.86365 9.61696 6.95322Z" fill="white"/>
<path d="M9.97051 7.80646L9.97051 8.80646L9.97051 7.80646ZM15.1937 7.80646V6.80646L16.1937 6.80646L16.1937 7.80646H15.1937ZM15.1937 13.0296L14.1937 13.0296L14.1937 13.0296L15.1937 13.0296ZM16.193 13.0296L15.193 13.0296L15.193 13.0296L16.193 13.0296ZM16.193 7.30677L17.193 7.30677L16.193 7.30677ZM15.6934 6.80709V5.80709V6.80709ZM9.97051 6.80709L9.97051 7.80709L9.97051 7.80709L9.97051 6.80709ZM10.3241 7.66033C10.4119 7.57248 10.4708 7.44455 10.4708 7.30677L8.47082 7.30677C8.47082 6.88616 8.64287 6.5131 8.90985 6.24611L10.3241 7.66033ZM10.4708 7.30677C10.4708 7.0279 10.2494 6.80646 9.97051 6.80646L9.97051 8.80646C9.14481 8.80646 8.47082 8.13247 8.47082 7.30677L10.4708 7.30677ZM9.97051 6.80646L15.1937 6.80646V8.80646L9.97051 8.80646L9.97051 6.80646ZM16.1937 7.80646L16.1937 13.0296L14.1937 13.0296L14.1937 7.80646L16.1937 7.80646ZM16.1937 13.0296C16.1937 12.7508 15.9722 12.5293 15.6934 12.5293L15.6934 14.5293C14.8677 14.5293 14.1937 13.8553 14.1937 13.0296L16.1937 13.0296ZM15.6934 12.5293C15.4145 12.5293 15.193 12.7508 15.193 13.0296L17.193 13.0296C17.193 13.8553 16.5191 14.5293 15.6934 14.5293L15.6934 12.5293ZM15.193 13.0296L15.193 7.30677L17.193 7.30677L17.193 13.0296L15.193 13.0296ZM15.193 7.30677C15.193 7.58564 15.4145 7.80709 15.6934 7.80709V5.80709C16.5191 5.80709 17.193 6.48107 17.193 7.30677L15.193 7.30677ZM15.6934 7.80709L9.97051 7.80709L9.97051 5.80709L15.6934 5.80709V7.80709ZM9.97051 7.80709C10.1083 7.80709 10.2362 7.74818 10.3241 7.66033L8.90985 6.24611C9.17683 5.97913 9.54989 5.80709 9.97051 5.80709L9.97051 7.80709Z" fill="white" mask="url(#path-1-inside-1_209_4987)"/>
<mask id="path-3-inside-2_209_4987" fill="white">
<path d="M15.2599 7.03343L7.32613 14.9672C7.13286 15.1604 7.13286 15.481 7.32613 15.6743C7.51941 15.8676 7.83997 15.8676 8.03324 15.6743L15.967 7.74054C16.1603 7.54726 16.1603 7.22671 15.967 7.03343C15.7737 6.84016 15.4531 6.84016 15.2599 7.03343Z"/>
</mask>
<path d="M15.2599 7.03343L7.32613 14.9672C7.13286 15.1604 7.13286 15.481 7.32613 15.6743C7.51941 15.8676 7.83997 15.8676 8.03324 15.6743L15.967 7.74054C16.1603 7.54726 16.1603 7.22671 15.967 7.03343C15.7737 6.84016 15.4531 6.84016 15.2599 7.03343Z" fill="white"/>
<path d="M15.967 7.74054L8.03324 15.6743L6.61903 14.2601L14.5528 6.32633L15.967 7.74054ZM8.03324 15.6743C8.23049 15.477 8.23049 15.1644 8.03324 14.9672L6.61903 16.3814C6.03523 15.7976 6.03523 14.8439 6.61903 14.2601L8.03324 15.6743ZM8.03324 14.9672C7.83599 14.7699 7.52338 14.7699 7.32613 14.9672L8.74035 16.3814C8.15655 16.9652 7.20283 16.9652 6.61903 16.3814L8.03324 14.9672ZM7.32613 14.9672L15.2599 7.03343L16.6741 8.44765L8.74035 16.3814L7.32613 14.9672ZM15.2599 7.03343C15.0626 7.23068 15.0626 7.54329 15.2599 7.74054L16.6741 6.32633C17.2579 6.91013 17.2579 7.86385 16.6741 8.44765L15.2599 7.03343ZM15.2599 7.74054C15.4571 7.93779 15.7697 7.93779 15.967 7.74054L14.5528 6.32633C15.1366 5.74253 16.0903 5.74253 16.6741 6.32633L15.2599 7.74054Z" fill="white" mask="url(#path-3-inside-2_209_4987)"/>
</svg>
