<svg width="23" height="24" viewBox="0 0 23 24" fill="none" xmlns="http://www.w3.org/2000/svg">
<mask id="path-1-inside-1_369_835" fill="white">
<path d="M9.61696 7.6395C9.52739 7.72907 9.47082 7.85164 9.47082 7.99306C9.47082 8.26647 9.69709 8.49275 9.97051 8.49275L15.1937 8.49275L15.1937 13.7159C15.1937 13.9893 15.4199 14.2156 15.6934 14.2156C15.9668 14.2156 16.193 13.9893 16.193 13.7159L16.193 7.99306C16.193 7.71964 15.9668 7.49337 15.6934 7.49337L9.97051 7.49337C9.82909 7.49337 9.70652 7.54994 9.61696 7.6395Z"/>
</mask>
<path d="M9.61696 7.6395C9.52739 7.72907 9.47082 7.85164 9.47082 7.99306C9.47082 8.26647 9.69709 8.49275 9.97051 8.49275L15.1937 8.49275L15.1937 13.7159C15.1937 13.9893 15.4199 14.2156 15.6934 14.2156C15.9668 14.2156 16.193 13.9893 16.193 13.7159L16.193 7.99306C16.193 7.71964 15.9668 7.49337 15.6934 7.49337L9.97051 7.49337C9.82909 7.49337 9.70652 7.54994 9.61696 7.6395Z" fill="#171717"/>
<path d="M9.97051 8.49275L9.97051 9.49275L9.97051 8.49275ZM15.1937 8.49275V7.49275L16.1937 7.49275L16.1937 8.49275H15.1937ZM15.1937 13.7159L14.1937 13.7159L14.1937 13.7159L15.1937 13.7159ZM16.193 13.7159L15.193 13.7159L15.193 13.7159L16.193 13.7159ZM16.193 7.99306L17.193 7.99306L16.193 7.99306ZM15.6934 7.49337V6.49337V7.49337ZM9.97051 7.49337L9.97051 8.49337L9.97051 8.49337L9.97051 7.49337ZM10.3241 8.34661C10.4119 8.25876 10.4708 8.13083 10.4708 7.99306L8.47082 7.99306C8.47082 7.57244 8.64287 7.19938 8.90985 6.9324L10.3241 8.34661ZM10.4708 7.99306C10.4708 7.71419 10.2494 7.49275 9.97051 7.49275L9.97051 9.49275C9.14481 9.49275 8.47082 8.81876 8.47082 7.99306L10.4708 7.99306ZM9.97051 7.49275L15.1937 7.49275V9.49275L9.97051 9.49275L9.97051 7.49275ZM16.1937 8.49275L16.1937 13.7159L14.1937 13.7159L14.1937 8.49275L16.1937 8.49275ZM16.1937 13.7159C16.1937 13.437 15.9722 13.2156 15.6934 13.2156L15.6934 15.2156C14.8677 15.2156 14.1937 14.5416 14.1937 13.7159L16.1937 13.7159ZM15.6934 13.2156C15.4145 13.2156 15.193 13.437 15.193 13.7159L17.193 13.7159C17.193 14.5416 16.5191 15.2156 15.6934 15.2156L15.6934 13.2156ZM15.193 13.7159L15.193 7.99306L17.193 7.99306L17.193 13.7159L15.193 13.7159ZM15.193 7.99306C15.193 8.27193 15.4145 8.49337 15.6934 8.49337V6.49337C16.5191 6.49337 17.193 7.16736 17.193 7.99306L15.193 7.99306ZM15.6934 8.49337L9.97051 8.49337L9.97051 6.49337L15.6934 6.49337V8.49337ZM9.97051 8.49337C10.1083 8.49337 10.2362 8.43446 10.3241 8.34661L8.90985 6.9324C9.17683 6.66541 9.54989 6.49337 9.97051 6.49337L9.97051 8.49337Z" fill="#171717" mask="url(#path-1-inside-1_369_835)"/>
<mask id="path-3-inside-2_369_835" fill="white">
<path d="M15.2599 7.71964L7.32613 15.6534C7.13286 15.8467 7.13286 16.1672 7.32613 16.3605C7.51941 16.5538 7.83997 16.5538 8.03324 16.3605L15.967 8.42675C16.1603 8.23348 16.1603 7.91292 15.967 7.71964C15.7737 7.52637 15.4531 7.52637 15.2599 7.71964Z"/>
</mask>
<path d="M15.2599 7.71964L7.32613 15.6534C7.13286 15.8467 7.13286 16.1672 7.32613 16.3605C7.51941 16.5538 7.83997 16.5538 8.03324 16.3605L15.967 8.42675C16.1603 8.23348 16.1603 7.91292 15.967 7.71964C15.7737 7.52637 15.4531 7.52637 15.2599 7.71964Z" fill="#171717"/>
<path d="M15.967 8.42675L8.03324 16.3605L6.61903 14.9463L14.5528 7.01254L15.967 8.42675ZM8.03324 16.3605C8.23049 16.1632 8.23049 15.8506 8.03324 15.6534L6.61903 17.0676C6.03523 16.4838 6.03523 15.5301 6.61903 14.9463L8.03324 16.3605ZM8.03324 15.6534C7.83599 15.4561 7.52338 15.4561 7.32613 15.6534L8.74035 17.0676C8.15655 17.6514 7.20283 17.6514 6.61903 17.0676L8.03324 15.6534ZM7.32613 15.6534L15.2599 7.71964L16.6741 9.13386L8.74035 17.0676L7.32613 15.6534ZM15.2599 7.71964C15.0626 7.91689 15.0626 8.2295 15.2599 8.42675L16.6741 7.01254C17.2579 7.59634 17.2579 8.55006 16.6741 9.13386L15.2599 7.71964ZM15.2599 8.42675C15.4571 8.624 15.7697 8.624 15.967 8.42675L14.5528 7.01254C15.1366 6.42874 16.0903 6.42874 16.6741 7.01254L15.2599 8.42675Z" fill="#171717" mask="url(#path-3-inside-2_369_835)"/>
</svg>
