<svg width="64" height="64" viewBox="0 0 64 64" fill="none" xmlns="http://www.w3.org/2000/svg">
<rect x="2" y="2" width="60" height="60" rx="30" fill="white"/>
<rect x="2" y="2" width="60" height="60" rx="30" stroke="#1C1C1C" stroke-width="4"/>
<path d="M29.6312 39.909L29.6312 39.9089L29.6239 39.904C29.4858 39.812 29.4065 39.663 29.4065 39.4934C29.4065 39.2718 29.3918 39.0378 29.3627 38.8047L29.3626 38.8038C29.2273 37.7363 28.7437 36.8101 27.9534 36.0198C27.1608 35.2272 26.167 34.7187 25.0886 34.5839L25.0783 34.5826L25.0681 34.5818C24.9006 34.5678 24.6453 34.5521 24.3954 34.5677L24.3954 34.5676L24.3882 34.5682C24.2121 34.5817 24.0627 34.5104 23.9667 34.3761L23.9669 34.376L23.9599 34.3667C23.8635 34.2382 23.8314 34.0534 23.8856 33.8841C24.0652 33.3962 24.3267 32.9587 24.6311 32.6075L24.6381 32.5994L24.6448 32.5909L26.6969 30.0059C26.6971 30.0056 26.6973 30.0054 26.6975 30.0051C28.4286 27.8431 31.0659 25.4424 33.9311 23.3166C36.7954 21.1916 39.8561 19.3645 42.423 18.332C43.3467 17.9772 44.3232 18.1893 44.9945 18.8484C45.6943 19.5494 45.8995 20.5369 45.536 21.4401L45.5358 21.4406C44.5035 24.0149 42.6791 27.077 40.5565 29.9407C38.4339 32.8044 36.0363 35.4387 33.8741 37.1697L33.8737 37.17L31.256 39.2695C30.7914 39.6077 30.4304 39.8093 30.0809 39.9492L30.0615 39.9569L30.0429 39.9662C30.0168 39.9792 29.9624 39.9934 29.9065 39.9934C29.8026 39.9934 29.7163 39.9679 29.6312 39.909ZM25.6599 32.9447L25.1895 33.544L25.9265 33.7371C26.9563 34.0068 27.8791 34.5464 28.6597 35.3269L28.6625 35.3298C29.4414 36.0963 29.9535 36.9781 30.2096 37.9537L30.4055 38.7L31.0067 38.2163L33.2587 36.4039C33.259 36.4038 33.2592 36.4036 33.2594 36.4034C35.3972 34.6944 37.7294 32.1254 39.7733 29.366C41.8171 26.6068 43.596 23.6258 44.6105 21.0798C44.9205 20.3131 44.4827 19.7601 44.2775 19.5706C44.1166 19.4137 43.5749 18.9821 42.7843 19.2786L42.7843 19.2784L42.7729 19.283C40.2407 20.304 37.2664 22.0862 34.5087 24.1318C31.7509 26.1774 29.1787 28.5096 27.4633 30.6471L27.4632 30.6471L27.4599 30.6514L25.6599 32.9447Z" fill="#1C1C1C" stroke="#1C1C1C"/>
<path d="M18.1636 42.1231L18.1638 42.1212L18.5238 38.8412L18.524 38.8396C18.8434 35.8419 21.2966 33.6149 24.3569 33.5532L24.365 33.5531L24.3731 33.5526C24.5915 33.5411 24.8947 33.5522 25.1866 33.5772C26.5219 33.751 27.7109 34.3512 28.6733 35.3135C29.6254 36.2657 30.1866 37.3929 30.358 38.654L30.3581 38.6542C30.3959 38.9315 30.4201 39.2282 30.4201 39.48C30.4201 41.1068 29.7932 42.6197 28.6602 43.7662C27.7168 44.6964 26.5023 45.2759 25.1152 45.4501L21.8304 45.8091C21.6819 45.8226 21.5591 45.8333 21.4401 45.8333C20.5748 45.8333 19.7414 45.4875 19.1137 44.8598C18.3955 44.1415 18.0474 43.1461 18.1636 42.1231ZM24.4268 34.5667V34.5666L24.4169 34.5668C22.2074 34.6107 19.8154 36.1249 19.5163 38.9598C19.5163 38.9602 19.5163 38.9606 19.5162 38.961L19.1567 42.2366C19.0721 42.9539 19.3298 43.6466 19.814 44.1475L19.8139 44.1476L19.8199 44.1535C20.3096 44.6433 21.0058 44.9017 21.7108 44.8167L24.988 44.457L24.988 44.4571L24.9979 44.4558C26.1223 44.3098 27.1477 43.8395 27.927 43.0602C28.874 42.1133 29.4068 40.8395 29.4068 39.48C29.4068 39.2584 29.3921 39.0244 29.363 38.7913L29.3628 38.7904C29.2275 37.7229 28.744 36.7967 27.9537 36.0064C27.1611 35.2138 26.1673 34.7053 25.0888 34.5705L25.0579 34.5667H25.0268H25.0262H25.0256H25.0249H25.0243H25.0237H25.023H25.0224H25.0218H25.0211H25.0205H25.0199H25.0192H25.0186H25.0179H25.0173H25.0167H25.016H25.0154H25.0147H25.0141H25.0134H25.0128H25.0121H25.0115H25.0108H25.0102H25.0095H25.0088H25.0082H25.0075H25.0069H25.0062H25.0055H25.0049H25.0042H25.0035H25.0029H25.0022H25.0015H25.0009H25.0002H24.9995H24.9988H24.9982H24.9975H24.9968H24.9961H24.9955H24.9948H24.9941H24.9934H24.9927H24.992H24.9913H24.9907H24.99H24.9893H24.9886H24.9879H24.9872H24.9865H24.9858H24.9851H24.9844H24.9837H24.983H24.9823H24.9816H24.9809H24.9802H24.9795H24.9788H24.9781H24.9774H24.9767H24.976H24.9753H24.9745H24.9738H24.9731H24.9724H24.9717H24.971H24.9702H24.9695H24.9688H24.9681H24.9674H24.9666H24.9659H24.9652H24.9645H24.9637H24.963H24.9623H24.9615H24.9608H24.9601H24.9593H24.9586H24.9579H24.9571H24.9564H24.9557H24.9549H24.9542H24.9534H24.9527H24.952H24.9512H24.9505H24.9497H24.949H24.9482H24.9475H24.9467H24.946H24.9452H24.9445H24.9437H24.943H24.9422H24.9414H24.9407H24.9399H24.9392H24.9384H24.9376H24.9369H24.9361H24.9354H24.9346H24.9338H24.9331H24.9323H24.9315H24.9308H24.93H24.9292H24.9284H24.9277H24.9269H24.9261H24.9253H24.9246H24.9238H24.923H24.9222H24.9215H24.9207H24.9199H24.9191H24.9183H24.9175H24.9168H24.916H24.9152H24.9144H24.9136H24.9128H24.912H24.9112H24.9104H24.9097H24.9089H24.9081H24.9073H24.9065H24.9057H24.9049H24.9041H24.9033H24.9025H24.9017H24.9009H24.9001H24.8993H24.8985H24.8977H24.8969H24.896H24.8952H24.8944H24.8936H24.8928H24.892H24.8912H24.8904H24.8896H24.8888H24.8879H24.8871H24.8863H24.8855H24.8847H24.8839H24.883H24.8822H24.8814H24.8806H24.8798H24.8789H24.8781H24.8773H24.8765H24.8756H24.8748H24.874H24.8732H24.8723H24.8715H24.8707H24.8698H24.869H24.8682H24.8673H24.8665H24.8657H24.8648H24.864H24.8632H24.8623H24.8615H24.8607H24.8598H24.859H24.8581H24.8573H24.8565H24.8556H24.8548H24.8539H24.8531H24.8522H24.8514H24.8505H24.8497H24.8488H24.848H24.8472H24.8463H24.8455H24.8446H24.8437H24.8429H24.842H24.8412H24.8403H24.8395H24.8386H24.8378H24.8369H24.8361H24.8352H24.8343H24.8335H24.8326H24.8318H24.8309H24.83H24.8292H24.8283H24.8275H24.8266H24.8257H24.8249H24.824H24.8231H24.8223H24.8214H24.8205H24.8197H24.8188H24.8179H24.817H24.8162H24.8153H24.8144H24.8136H24.8127H24.8118H24.8109H24.8101H24.8092H24.8083H24.8074H24.8066H24.8057H24.8048H24.8039H24.803H24.8022H24.8013H24.8004H24.7995H24.7986H24.7978H24.7969H24.796H24.7951H24.7942H24.7933H24.7925H24.7916H24.7907H24.7898H24.7889H24.788H24.7871H24.7862H24.7854H24.7845H24.7836H24.7827H24.7818H24.7809H24.78H24.7791H24.7782H24.7773H24.7764H24.7755H24.7747H24.7738H24.7729H24.772H24.7711H24.7702H24.7693H24.7684H24.7675H24.7666H24.7657H24.7648H24.7639H24.763H24.7621H24.7612H24.7603H24.7594H24.7585H24.7576H24.7567H24.7558H24.7549H24.754H24.753H24.7521H24.7512H24.7503H24.7494H24.7485H24.7476H24.7467H24.7458H24.7449H24.744H24.7431H24.7422H24.7413H24.7403H24.7394H24.7385H24.7376H24.7367H24.7358H24.7349H24.734H24.733H24.7321H24.7312H24.7303H24.7294H24.7285H24.7276H24.7266H24.7257H24.7248H24.7239H24.723H24.7221H24.7211H24.7202H24.7193H24.7184H24.7175H24.7166H24.7156H24.7147H24.7138H24.7129H24.712H24.711H24.7101H24.7092H24.7083H24.7074H24.7064H24.7055H24.7046H24.7037H24.7027H24.7018H24.7009H24.7H24.699H24.6981H24.6972H24.6963H24.6954H24.6944H24.6935H24.6926H24.6916H24.6907H24.6898H24.6889H24.6879H24.687H24.6861H24.6852H24.6842H24.6833H24.6824H24.6814H24.6805H24.6796H24.6787H24.6777H24.6768H24.6759H24.6749H24.674H24.6731H24.6722H24.6712H24.6703H24.6694H24.6684H24.6675H24.6666H24.6656H24.6647H24.6638H24.6628H24.6619H24.661H24.66H24.6591H24.6582H24.6572H24.6563H24.6554H24.6544H24.6535H24.6526H24.6516H24.6507H24.6498H24.6488H24.6479H24.647H24.646H24.6451H24.6442H24.6432H24.6423H24.6414H24.6404H24.6395H24.6386H24.6376H24.6367H24.6358H24.6348H24.6339H24.6329H24.632H24.6311H24.6301H24.6292H24.6283H24.6273H24.6264H24.6255H24.6245H24.6236H24.6226H24.6217H24.6208H24.6198H24.6189H24.618H24.617H24.6161H24.6151H24.6142H24.6133H24.6123H24.6114H24.6105H24.6095H24.6086H24.6076H24.6067H24.6058H24.6048H24.6039H24.603H24.602H24.6011H24.6001H24.5998H24.5995H24.5992H24.5989H24.5986H24.5983H24.598H24.5976H24.5973H24.597H24.5967H24.5964H24.5961H24.5957H24.5954H24.5951H24.5948H24.5945H24.5942H24.5938H24.5935H24.5932H24.5929H24.5926H24.5922H24.5919H24.5916H24.5913H24.591H24.5906H24.5903H24.59H24.5897H24.5894H24.589H24.5887H24.5884H24.5881H24.5877H24.5874H24.5871H24.5868H24.5864H24.5861H24.5858H24.5855H24.5851H24.5848H24.5845H24.5842H24.5838H24.5835H24.5832H24.5829H24.5825H24.5822H24.5819H24.5815H24.5812H24.5809H24.5806H24.5802H24.5799H24.5796H24.5792H24.5789H24.5786H24.5783H24.5779H24.5776H24.5773H24.5769H24.5766H24.5763H24.5759H24.5756H24.5753H24.5749H24.5746H24.5743H24.5739H24.5736H24.5733H24.5729H24.5726H24.5723H24.5719H24.5716H24.5713H24.5709H24.5706H24.5703H24.5699H24.5696H24.5693H24.5689H24.5686H24.5682H24.5679H24.5676H24.5672H24.5669H24.5666H24.5662H24.5659H24.5655H24.5652H24.5649H24.5645H24.5642H24.5639H24.5635H24.5632H24.5628H24.5625H24.5622H24.5618H24.5615H24.5611H24.5608H24.5605H24.5601H24.5598H24.5594H24.5591H24.5587H24.5584H24.5581H24.5577H24.5574H24.557H24.5567H24.5564H24.556H24.5557H24.5553H24.555H24.5546H24.5543H24.554H24.5536H24.5533H24.5529H24.5526H24.5522H24.5519H24.5515H24.5512H24.5509H24.5505H24.5502H24.5498H24.5495H24.5491H24.5488H24.5484H24.5481H24.5477H24.5474H24.5471H24.5467H24.5464H24.546H24.5457H24.5453H24.545H24.5446H24.5443H24.5439H24.5436H24.5432H24.5429H24.5425H24.5422H24.5419H24.5415H24.5412H24.5408H24.5405H24.5401H24.5398H24.5394H24.5391H24.5387H24.5384H24.538H24.5377H24.5373H24.537H24.5366H24.5363H24.5359H24.5356H24.5352H24.5349H24.5345H24.5342H24.5338H24.5335H24.5331H24.5328H24.5324H24.5321H24.5317H24.5314H24.531H24.5307H24.5303H24.53H24.5296H24.5293H24.5289H24.5286H24.5282H24.5279H24.5275H24.5272H24.5268H24.5265H24.5261H24.5258H24.5254H24.5251H24.5247H24.5244H24.524H24.5237H24.5233H24.523H24.5226H24.5223H24.5219H24.5216H24.5212H24.5209H24.5205H24.5202H24.5198H24.5195H24.5191H24.5188H24.5184H24.5181H24.5177H24.5173H24.517H24.5166H24.5163H24.5159H24.5156H24.5152H24.5149H24.5145H24.5142H24.5138H24.5135H24.5131H24.5128H24.5124H24.5121H24.5117H24.5114H24.511H24.5107H24.5103H24.51H24.5096H24.5093H24.5089H24.5086H24.5082H24.5079H24.5075H24.5072H24.5068H24.5065H24.5061H24.5057H24.5054H24.505H24.5047H24.5043H24.504H24.5036H24.5033H24.5029H24.5026H24.5022H24.5019H24.5015H24.5012H24.5008H24.5005H24.5001H24.4998H24.4994H24.4991H24.4987H24.4984H24.498H24.4977H24.4973H24.497H24.4966H24.4963H24.4959H24.4956H24.4952H24.4949H24.4945H24.4942H24.4938H24.4935H24.4931H24.4928H24.4924H24.4921H24.4917H24.4914H24.491H24.4907H24.4903H24.49H24.4896H24.4893H24.4889H24.4886H24.4882H24.4879H24.4875H24.4872H24.4868H24.4865H24.4862H24.4858H24.4855H24.4851H24.4848H24.4844H24.4841H24.4837H24.4834H24.483H24.4827H24.4823H24.482H24.4816H24.4813H24.4809H24.4806H24.4803H24.4799H24.4796H24.4792H24.4789H24.4785H24.4782H24.4778H24.4775H24.4771H24.4768H24.4765H24.4761H24.4758H24.4754H24.4751H24.4747H24.4744H24.474H24.4737H24.4734H24.473H24.4727H24.4723H24.472H24.4716H24.4713H24.471H24.4706H24.4703H24.4699H24.4696H24.4692H24.4689H24.4686H24.4682H24.4679H24.4675H24.4672H24.4668H24.4665H24.4662H24.4658H24.4655H24.4651H24.4648H24.4645H24.4641H24.4638H24.4634H24.4631H24.4628H24.4624H24.4621H24.4618H24.4614H24.4611H24.4607H24.4604H24.4601H24.4597H24.4594H24.4591H24.4587H24.4584H24.458H24.4577H24.4574H24.457H24.4567H24.4564H24.456H24.4557H24.4554H24.455H24.4547H24.4544H24.454H24.4537H24.4534H24.453H24.4527H24.4524H24.452H24.4517H24.4514H24.451H24.4507H24.4504H24.45H24.4497H24.4494H24.449H24.4487H24.4484H24.448H24.4477H24.4474H24.4471H24.4467H24.4464H24.4461H24.4457H24.4454H24.4451H24.4448H24.4444H24.4441H24.4438H24.4434H24.4431H24.4428H24.4425H24.4421H24.4418H24.4415H24.4412H24.4408H24.4405H24.4402H24.4399H24.4395H24.4392H24.4389H24.4386H24.4383H24.4379H24.4376H24.4373H24.437H24.4366H24.4363H24.436H24.4357H24.4354H24.435H24.4347H24.4344H24.4341H24.4338H24.4334H24.4331H24.4328H24.4325H24.4322H24.4319H24.4315H24.4312H24.4309H24.4306H24.4303H24.43H24.4296H24.4293H24.429H24.4287H24.4284H24.4281H24.4278H24.4274H24.4271H24.4268Z" fill="#1C1C1C" stroke="#1C1C1C"/>
<path d="M35.4735 35.2932H35.4734L35.4737 35.3051C35.48 35.5731 35.2641 35.7932 34.9868 35.7932C34.7163 35.7932 34.4868 35.5638 34.4868 35.2932C34.4868 32.0829 31.8755 29.4866 28.6802 29.4866C28.4097 29.4866 28.1802 29.2571 28.1802 28.9866C28.1802 28.7073 28.405 28.4866 28.6668 28.4866C32.4174 28.4866 35.4735 31.5427 35.4735 35.2932Z" fill="#1C1C1C" stroke="#1C1C1C"/>
</svg>
