<svg width="40" height="41" viewBox="0 0 40 41" fill="none" xmlns="http://www.w3.org/2000/svg">
<path d="M16.9678 30.6165L16.9678 30.6165L16.9605 30.6116C16.7524 30.4729 16.6332 30.2472 16.6332 29.9943C16.6332 29.7228 16.6151 29.4354 16.5793 29.149L16.5792 29.1481C16.4139 27.8439 15.8237 26.7111 14.8534 25.7407C13.8808 24.7681 12.6637 24.1463 11.3452 23.9815L11.335 23.9802L11.3247 23.9794C11.1173 23.9621 10.8053 23.943 10.502 23.9619L10.502 23.9619L10.4948 23.9624C10.2321 23.9827 10.0026 23.8747 9.85672 23.6704L9.85683 23.6703L9.84985 23.661C9.70353 23.4659 9.658 23.1911 9.73882 22.942C9.96839 22.3172 10.3033 21.7563 10.6944 21.3051L10.7014 21.297L10.7081 21.2885L13.2735 18.0568C13.2737 18.0565 13.2739 18.0563 13.2741 18.056C15.4469 15.3423 18.7525 12.3341 22.3394 9.67294C25.9253 7.01251 29.761 4.72211 32.9829 3.42627C34.1833 2.96481 35.4565 3.24018 36.3311 4.09934C37.241 5.01031 37.5095 6.29777 37.036 7.4743L37.0358 7.47487C35.7401 10.7058 33.4532 14.5429 30.7961 18.1278C28.1389 21.7128 25.1346 25.0146 22.4207 27.1873L22.4204 27.1876L19.146 29.8137C18.558 30.242 18.097 30.5003 17.6475 30.6801L17.6282 30.6878L17.6096 30.6971C17.5568 30.7235 17.469 30.7443 17.3832 30.7443C17.2292 30.7443 17.0963 30.7055 16.9678 30.6165ZM12.1732 21.8856L11.7028 22.4849L12.4398 22.678C13.7496 23.021 14.9224 23.7073 15.913 24.6979L15.9158 24.7007C16.9047 25.6739 17.5568 26.7956 17.8829 28.0379L18.0788 28.7843L18.68 28.3005L21.4954 26.0349C21.4956 26.0347 21.4958 26.0345 21.4961 26.0343C24.1572 23.9069 27.0652 20.7046 29.6162 17.2607C32.1671 13.8169 34.3843 10.1001 35.6471 6.93076C36.0072 6.04058 35.4992 5.40089 35.2607 5.18152C35.0764 5.00108 34.448 4.49643 33.5243 4.8428L33.5242 4.84266L33.5129 4.84725C30.3607 6.11828 26.6522 8.33958 23.2103 10.8927C19.7684 13.4458 16.562 16.3538 14.4266 19.0147L14.4265 19.0147L14.4232 19.0189L12.1732 21.8856Z" fill="white" stroke="white"/>
<path d="M2.58008 33.2672L2.58029 33.2653L3.03029 29.1653L3.03046 29.1637C3.43655 25.3527 6.55642 22.5223 10.4434 22.4439L10.4515 22.4438L10.4596 22.4433C10.7412 22.4285 11.1278 22.4429 11.4964 22.4746C13.195 22.695 14.7073 23.4585 15.9297 24.6809C17.1385 25.8897 17.8531 27.3236 18.0712 28.928L18.0712 28.9283C18.119 29.2789 18.1499 29.6556 18.1499 29.9774C18.1499 32.0442 17.353 33.9671 15.9133 35.4236C14.7133 36.6071 13.1687 37.3433 11.4084 37.5641L7.30006 38.0132C7.11484 38.03 6.9555 38.044 6.79994 38.044C5.68461 38.044 4.6112 37.5982 3.80349 36.7905C2.8786 35.8656 2.43049 34.5835 2.58008 33.2672ZM10.5333 23.9607V23.9606L10.5233 23.9608C7.81052 24.0147 4.88514 25.8723 4.51947 29.3406C4.51943 29.341 4.51939 29.3413 4.51935 29.3417L4.06983 33.4373C3.96852 34.2946 4.27624 35.124 4.85711 35.7249L4.85706 35.7249L4.86305 35.7309C5.44945 36.3173 6.28229 36.6257 7.124 36.5241L11.2212 36.0744L11.2212 36.0745L11.231 36.0732C12.6121 35.8938 13.8675 35.3169 14.8202 34.3643C15.9804 33.204 16.6333 31.6436 16.6333 29.9774C16.6333 29.7058 16.6152 29.4184 16.5794 29.132L16.5793 29.1312C16.414 27.827 15.8238 26.6941 14.8535 25.7238C13.8809 24.7512 12.6638 24.1294 11.3453 23.9646L11.3144 23.9607H11.2833H11.2825H11.2817H11.2809H11.2801H11.2793H11.2786H11.2778H11.277H11.2762H11.2754H11.2746H11.2738H11.273H11.2722H11.2714H11.2706H11.2698H11.269H11.2682H11.2673H11.2665H11.2657H11.2649H11.2641H11.2633H11.2625H11.2616H11.2608H11.26H11.2592H11.2583H11.2575H11.2567H11.2558H11.255H11.2542H11.2533H11.2525H11.2517H11.2508H11.25H11.2492H11.2483H11.2475H11.2466H11.2458H11.2449H11.2441H11.2432H11.2424H11.2415H11.2407H11.2398H11.2389H11.2381H11.2372H11.2364H11.2355H11.2346H11.2338H11.2329H11.232H11.2312H11.2303H11.2294H11.2285H11.2277H11.2268H11.2259H11.225H11.2241H11.2233H11.2224H11.2215H11.2206H11.2197H11.2188H11.2179H11.217H11.2161H11.2153H11.2144H11.2135H11.2126H11.2117H11.2108H11.2099H11.209H11.208H11.2071H11.2062H11.2053H11.2044H11.2035H11.2026H11.2017H11.2008H11.1999H11.1989H11.198H11.1971H11.1962H11.1953H11.1943H11.1934H11.1925H11.1916H11.1906H11.1897H11.1888H11.1878H11.1869H11.186H11.185H11.1841H11.1832H11.1822H11.1813H11.1803H11.1794H11.1785H11.1775H11.1766H11.1756H11.1747H11.1737H11.1728H11.1718H11.1709H11.1699H11.169H11.168H11.167H11.1661H11.1651H11.1642H11.1632H11.1622H11.1613H11.1603H11.1593H11.1584H11.1574H11.1564H11.1555H11.1545H11.1535H11.1525H11.1516H11.1506H11.1496H11.1486H11.1477H11.1467H11.1457H11.1447H11.1437H11.1427H11.1418H11.1408H11.1398H11.1388H11.1378H11.1368H11.1358H11.1348H11.1338H11.1328H11.1318H11.1309H11.1299H11.1289H11.1279H11.1269H11.1259H11.1248H11.1238H11.1228H11.1218H11.1208H11.1198H11.1188H11.1178H11.1168H11.1158H11.1148H11.1137H11.1127H11.1117H11.1107H11.1097H11.1087H11.1076H11.1066H11.1056H11.1046H11.1036H11.1025H11.1015H11.1005H11.0995H11.0984H11.0974H11.0964H11.0953H11.0943H11.0933H11.0922H11.0912H11.0902H11.0891H11.0881H11.0871H11.086H11.085H11.0839H11.0829H11.0818H11.0808H11.0798H11.0787H11.0777H11.0766H11.0756H11.0745H11.0735H11.0724H11.0714H11.0703H11.0693H11.0682H11.0672H11.0661H11.0651H11.064H11.0629H11.0619H11.0608H11.0598H11.0587H11.0576H11.0566H11.0555H11.0544H11.0534H11.0523H11.0512H11.0502H11.0491H11.048H11.047H11.0459H11.0448H11.0438H11.0427H11.0416H11.0405H11.0395H11.0384H11.0373H11.0362H11.0351H11.0341H11.033H11.0319H11.0308H11.0297H11.0287H11.0276H11.0265H11.0254H11.0243H11.0232H11.0222H11.0211H11.02H11.0189H11.0178H11.0167H11.0156H11.0145H11.0134H11.0123H11.0112H11.0101H11.0091H11.008H11.0069H11.0058H11.0047H11.0036H11.0025H11.0014H11.0003H10.9992H10.9981H10.997H10.9959H10.9948H10.9936H10.9925H10.9914H10.9903H10.9892H10.9881H10.987H10.9859H10.9848H10.9837H10.9826H10.9815H10.9803H10.9792H10.9781H10.977H10.9759H10.9748H10.9737H10.9725H10.9714H10.9703H10.9692H10.9681H10.967H10.9658H10.9647H10.9636H10.9625H10.9613H10.9602H10.9591H10.958H10.9569H10.9557H10.9546H10.9535H10.9524H10.9512H10.9501H10.949H10.9478H10.9467H10.9456H10.9445H10.9433H10.9422H10.9411H10.9399H10.9388H10.9377H10.9365H10.9354H10.9343H10.9331H10.932H10.9309H10.9297H10.9286H10.9275H10.9263H10.9252H10.924H10.9229H10.9218H10.9206H10.9195H10.9183H10.9172H10.9161H10.9149H10.9138H10.9126H10.9115H10.9104H10.9092H10.9081H10.9069H10.9058H10.9046H10.9035H10.9023H10.9012H10.9H10.8989H10.8978H10.8966H10.8955H10.8943H10.8932H10.892H10.8909H10.8897H10.8886H10.8874H10.8863H10.8851H10.884H10.8828H10.8816H10.8805H10.8793H10.8782H10.877H10.8759H10.8747H10.8736H10.8724H10.8713H10.8701H10.8689H10.8678H10.8666H10.8655H10.8643H10.8632H10.862H10.8608H10.8597H10.8585H10.8574H10.8562H10.855H10.8539H10.8527H10.8516H10.8504H10.8492H10.8481H10.8469H10.8458H10.8446H10.8434H10.8423H10.8411H10.8399H10.8388H10.8376H10.8365H10.8353H10.8341H10.833H10.8318H10.8306H10.8295H10.8283H10.8271H10.826H10.8248H10.8236H10.8225H10.8213H10.8201H10.819H10.8178H10.8166H10.8155H10.8143H10.8131H10.812H10.8108H10.8096H10.8085H10.8073H10.8061H10.805H10.8038H10.8026H10.8015H10.8003H10.7991H10.798H10.7968H10.7956H10.7944H10.7933H10.7921H10.7909H10.7898H10.7886H10.7874H10.7863H10.7851H10.7839H10.7827H10.7816H10.7804H10.7792H10.7781H10.7769H10.7757H10.7745H10.7734H10.7722H10.771H10.7699H10.7687H10.7675H10.7663H10.7652H10.764H10.7628H10.7617H10.7605H10.7593H10.7581H10.757H10.7558H10.7546H10.7535H10.7523H10.7511H10.7499H10.7495H10.7492H10.7488H10.7484H10.748H10.7476H10.7472H10.7468H10.7464H10.746H10.7456H10.7452H10.7448H10.7444H10.744H10.7436H10.7432H10.7428H10.7425H10.7421H10.7417H10.7413H10.7409H10.7405H10.7401H10.7397H10.7393H10.7389H10.7385H10.7381H10.7377H10.7373H10.7369H10.7364H10.736H10.7356H10.7352H10.7348H10.7344H10.734H10.7336H10.7332H10.7328H10.7324H10.732H10.7316H10.7312H10.7308H10.7304H10.73H10.7296H10.7291H10.7287H10.7283H10.7279H10.7275H10.7271H10.7267H10.7263H10.7259H10.7255H10.725H10.7246H10.7242H10.7238H10.7234H10.723H10.7226H10.7222H10.7217H10.7213H10.7209H10.7205H10.7201H10.7197H10.7193H10.7188H10.7184H10.718H10.7176H10.7172H10.7168H10.7163H10.7159H10.7155H10.7151H10.7147H10.7143H10.7138H10.7134H10.713H10.7126H10.7122H10.7117H10.7113H10.7109H10.7105H10.7101H10.7096H10.7092H10.7088H10.7084H10.708H10.7075H10.7071H10.7067H10.7063H10.7058H10.7054H10.705H10.7046H10.7041H10.7037H10.7033H10.7029H10.7024H10.702H10.7016H10.7012H10.7007H10.7003H10.6999H10.6995H10.699H10.6986H10.6982H10.6978H10.6973H10.6969H10.6965H10.6961H10.6956H10.6952H10.6948H10.6943H10.6939H10.6935H10.6931H10.6926H10.6922H10.6918H10.6913H10.6909H10.6905H10.69H10.6896H10.6892H10.6888H10.6883H10.6879H10.6875H10.687H10.6866H10.6862H10.6857H10.6853H10.6849H10.6844H10.684H10.6836H10.6831H10.6827H10.6823H10.6818H10.6814H10.681H10.6805H10.6801H10.6797H10.6792H10.6788H10.6784H10.6779H10.6775H10.6771H10.6766H10.6762H10.6758H10.6753H10.6749H10.6745H10.674H10.6736H10.6732H10.6727H10.6723H10.6718H10.6714H10.671H10.6705H10.6701H10.6697H10.6692H10.6688H10.6684H10.6679H10.6675H10.667H10.6666H10.6662H10.6657H10.6653H10.6649H10.6644H10.664H10.6635H10.6631H10.6627H10.6622H10.6618H10.6614H10.6609H10.6605H10.66H10.6596H10.6592H10.6587H10.6583H10.6579H10.6574H10.657H10.6565H10.6561H10.6557H10.6552H10.6548H10.6543H10.6539H10.6535H10.653H10.6526H10.6522H10.6517H10.6513H10.6508H10.6504H10.65H10.6495H10.6491H10.6486H10.6482H10.6478H10.6473H10.6469H10.6464H10.646H10.6456H10.6451H10.6447H10.6442H10.6438H10.6434H10.6429H10.6425H10.642H10.6416H10.6412H10.6407H10.6403H10.6398H10.6394H10.639H10.6385H10.6381H10.6377H10.6372H10.6368H10.6363H10.6359H10.6355H10.635H10.6346H10.6341H10.6337H10.6333H10.6328H10.6324H10.6319H10.6315H10.6311H10.6306H10.6302H10.6297H10.6293H10.6289H10.6284H10.628H10.6276H10.6271H10.6267H10.6262H10.6258H10.6254H10.6249H10.6245H10.624H10.6236H10.6232H10.6227H10.6223H10.6219H10.6214H10.621H10.6205H10.6201H10.6197H10.6192H10.6188H10.6184H10.6179H10.6175H10.617H10.6166H10.6162H10.6157H10.6153H10.6149H10.6144H10.614H10.6135H10.6131H10.6127H10.6122H10.6118H10.6114H10.6109H10.6105H10.6101H10.6096H10.6092H10.6088H10.6083H10.6079H10.6074H10.607H10.6066H10.6061H10.6057H10.6053H10.6048H10.6044H10.604H10.6035H10.6031H10.6027H10.6022H10.6018H10.6014H10.6009H10.6005H10.6001H10.5996H10.5992H10.5988H10.5983H10.5979H10.5975H10.597H10.5966H10.5962H10.5958H10.5953H10.5949H10.5945H10.594H10.5936H10.5932H10.5927H10.5923H10.5919H10.5914H10.591H10.5906H10.5902H10.5897H10.5893H10.5889H10.5884H10.588H10.5876H10.5872H10.5867H10.5863H10.5859H10.5855H10.585H10.5846H10.5842H10.5837H10.5833H10.5829H10.5825H10.582H10.5816H10.5812H10.5808H10.5803H10.5799H10.5795H10.5791H10.5786H10.5782H10.5778H10.5774H10.577H10.5765H10.5761H10.5757H10.5753H10.5748H10.5744H10.574H10.5736H10.5732H10.5727H10.5723H10.5719H10.5715H10.5711H10.5706H10.5702H10.5698H10.5694H10.569H10.5685H10.5681H10.5677H10.5673H10.5669H10.5665H10.566H10.5656H10.5652H10.5648H10.5644H10.564H10.5635H10.5631H10.5627H10.5623H10.5619H10.5615H10.5611H10.5606H10.5602H10.5598H10.5594H10.559H10.5586H10.5582H10.5578H10.5573H10.5569H10.5565H10.5561H10.5557H10.5553H10.5549H10.5545H10.5541H10.5537H10.5533H10.5528H10.5524H10.552H10.5516H10.5512H10.5508H10.5504H10.55H10.5496H10.5492H10.5488H10.5484H10.548H10.5476H10.5472H10.5468H10.5464H10.546H10.5456H10.5452H10.5448H10.5444H10.544H10.5436H10.5432H10.5428H10.5424H10.542H10.5416H10.5412H10.5408H10.5404H10.54H10.5396H10.5392H10.5388H10.5384H10.538H10.5376H10.5372H10.5368H10.5364H10.536H10.5356H10.5352H10.5348H10.5344H10.5341H10.5337H10.5333Z" fill="white" stroke="white"/>
<path d="M24.4668 24.7442H24.4666L24.4669 24.7561C24.4766 25.1641 24.1474 25.4942 23.7334 25.4942C23.3262 25.4942 22.9834 25.1514 22.9834 24.7442C22.9834 20.8005 19.7754 17.6108 15.8501 17.6108C15.4429 17.6108 15.1001 17.268 15.1001 16.8608C15.1001 16.4449 15.4349 16.1108 15.8334 16.1108C20.5906 16.1108 24.4668 19.987 24.4668 24.7442Z" fill="white" stroke="white"/>
</svg>
