<svg width="40" height="41" viewBox="0 0 40 41" fill="none" xmlns="http://www.w3.org/2000/svg">
<path d="M11.2832 28.3777V28.8777H11.7832H15.5998H16.0998V28.3777V20.461V19.961H15.5998H12.4332C11.8155 19.961 11.2832 20.4598 11.2832 21.1109V28.3777ZM16.8498 30.3777H10.5332C10.126 30.3777 9.7832 30.0349 9.7832 29.6277V21.0944C9.7832 19.6372 10.976 18.4443 12.4332 18.4443H16.8498C17.257 18.4443 17.5998 18.7871 17.5998 19.1943V29.611C17.5998 30.0392 17.2527 30.3777 16.8498 30.3777Z" fill="white" stroke="white"/>
<path d="M21.9173 28.8775H22.4173V28.3775V13.5275C22.4173 12.9098 21.9185 12.3774 21.2673 12.3774H18.734C18.1161 12.3774 17.584 12.8764 17.584 13.5275V28.3775V28.8775H18.084H18.1006H21.9173ZM23.1507 30.3775H16.834C16.4268 30.3775 16.084 30.0347 16.084 29.6275V13.5275C16.084 12.0703 17.2768 10.8774 18.734 10.8774H21.2673C22.7245 10.8774 23.9173 12.0703 23.9173 13.5275V29.6207C23.9042 30.0417 23.5662 30.3775 23.1507 30.3775Z" fill="white" stroke="white"/>
<path d="M23.9004 28.3774V28.8774H24.4004H28.217H28.717V28.3774V23.944C28.717 23.3263 28.2182 22.7939 27.567 22.7939H24.4004H23.9004V23.2939V28.3774ZM29.467 30.3774H23.1504C22.7432 30.3774 22.4004 30.0346 22.4004 29.6274V22.0439C22.4004 21.6368 22.7432 21.2939 23.1504 21.2939H27.567C29.0242 21.2939 30.217 22.4868 30.217 23.944V29.6274C30.217 30.0389 29.8865 30.3774 29.467 30.3774Z" fill="white" stroke="white"/>
<path d="M24.9997 38.0443H14.9997C10.5321 38.0443 7.46293 37.0879 5.50114 35.1261C3.53936 33.1643 2.58301 30.0952 2.58301 25.6276L2.58301 15.6276C2.58301 11.16 3.53936 8.09086 5.50114 6.12907C7.46293 4.16729 10.5321 3.21094 14.9997 3.21094L24.9997 3.21094C29.4673 3.21094 32.5364 4.16729 34.4982 6.12907C36.46 8.09086 37.4163 11.16 37.4163 15.6276V25.6276C37.4163 30.0952 36.46 33.1643 34.4982 35.1261C32.5364 37.0879 29.4673 38.0443 24.9997 38.0443ZM14.9997 4.71094C11.1227 4.71094 8.34566 5.39534 6.55654 7.18447C4.76741 8.97359 4.08301 11.7507 4.08301 15.6276L4.08301 25.6276C4.08301 29.5045 4.76741 32.2816 6.55654 34.0707C8.34566 35.8599 11.1227 36.5443 14.9997 36.5443H24.9997C28.8766 36.5443 31.6537 35.8599 33.4428 34.0707C35.2319 32.2816 35.9163 29.5045 35.9163 25.6276V15.6276C35.9163 11.7507 35.2319 8.97359 33.4428 7.18447C31.6537 5.39534 28.8766 4.71094 24.9997 4.71094L14.9997 4.71094Z" fill="white" stroke="white"/>
</svg>
