<svg width="16" height="17" viewBox="0 0 16 17" fill="none" xmlns="http://www.w3.org/2000/svg">
<path d="M8.68164 15.2596C8.45781 15.2824 8.23074 15.2938 8.00098 15.2938C8.11561 15.2938 8.22955 15.2907 8.34277 15.285L8.68164 15.2596ZM4.8252 14.4881C5.581 14.8992 6.42471 15.1684 7.32031 15.2596L7.6582 15.285C6.75006 15.2388 5.88948 15.0105 5.1123 14.6356L4.8252 14.4881ZM11.4551 14.3279C11.0886 14.5508 10.6992 14.7398 10.291 14.8895L9.98145 14.994C10.3986 14.8639 10.7981 14.6935 11.1758 14.4881L11.4551 14.3279ZM2.66016 12.6141C3.04438 13.1275 3.50123 13.5834 4.01465 13.9676L4.27539 14.1541C3.74324 13.7944 3.26531 13.3602 2.85742 12.866L2.66016 12.6141ZM13.5273 12.3524C13.1076 12.9733 12.5865 13.5203 11.9873 13.9686L11.7256 14.1541C12.3462 13.7345 12.8926 13.213 13.3408 12.6141L13.5273 12.3524ZM1.8584 11.2195C1.98515 11.5188 2.13343 11.8067 2.30078 12.0818L2.47363 12.3524C2.23394 11.9978 2.0272 11.6191 1.8584 11.2205V11.2195ZM14.3672 10.6082C14.3022 10.8169 14.227 11.0211 14.1426 11.2205L14.0088 11.5154C14.1025 11.3213 14.1869 11.1218 14.2617 10.9178L14.3672 10.6082ZM1.99219 5.74005C1.75787 6.22571 1.58088 6.74396 1.46973 7.28595L1.41113 7.6131C1.51245 6.95162 1.71103 6.32185 1.99219 5.73907V5.74005ZM13.8613 5.45197C14.1695 6.01862 14.3979 6.63458 14.5312 7.28497L14.5908 7.6131C14.4895 6.95194 14.2899 6.32267 14.0088 5.74005L13.8613 5.45197ZM7.6582 1.96954C5.38893 2.08491 3.41561 3.34011 2.30078 5.17267L2.13965 5.45197C3.16684 3.56291 5.08058 2.223 7.31934 1.99493L7.6582 1.96954ZM11.9873 3.28693C12.5007 3.67111 12.9576 4.127 13.3418 4.64044L13.5273 4.90216C13.1677 4.37028 12.7331 3.89297 12.2393 3.48517L11.9873 3.28693ZM10.291 2.36603C10.6991 2.51568 11.0887 2.70381 11.4551 2.92657L11.7256 3.1004C11.3708 2.86051 10.9915 2.65408 10.5928 2.48517L10.291 2.36603ZM8.34375 1.96954L8.68164 1.99493C8.45782 1.97213 8.23072 1.96077 8.00098 1.96075C8.11593 1.96076 8.23021 1.96377 8.34375 1.96954Z" fill="#B9B9B9" stroke="#B9B9B9"/>
<path d="M7.87695 8.87042C7.90004 8.92232 7.9256 8.97096 7.95117 9.01593C8.03197 9.15799 8.15091 9.317 8.30469 9.43683C8.12744 9.29756 7.97483 9.09211 7.87695 8.87042ZM7.87695 8.87042C7.86021 8.8325 7.84643 8.79372 7.83301 8.75519C7.84692 8.79466 7.86058 8.83361 7.87695 8.87042ZM8.41016 9.50909V9.51007L10.4756 10.7425L10.4746 10.7435L8.40918 9.51105C8.39863 9.50473 8.38933 9.49637 8.37891 9.48956C8.38923 9.49622 8.39955 9.50284 8.41016 9.50909ZM7.81641 8.70831C7.80133 8.65973 7.7894 8.61109 7.78027 8.56281C7.7897 8.61233 7.80156 8.66105 7.81641 8.70831ZM7.77344 8.53448C7.77222 8.52706 7.77255 8.51942 7.77148 8.51202C7.77255 8.51945 7.77222 8.52709 7.77344 8.53448Z" fill="#B9B9B9" stroke="#B9B9B9"/>
</svg>
