<svg width="40" height="41" viewBox="0 0 40 41" fill="none" xmlns="http://www.w3.org/2000/svg">
<path d="M37.6607 19.3323C38.0963 20.3019 37.9298 21.3931 37.2245 22.1974C37.2244 22.1975 37.2243 22.1976 37.2242 22.1977L24.6082 36.5302C24.6082 36.5303 24.6081 36.5303 24.6081 36.5304C24.0897 37.1187 23.3616 37.4274 22.6168 37.4274C22.2922 37.4274 21.9674 37.3711 21.6564 37.2582C20.6054 36.865 19.9334 35.8872 19.9334 34.7607V24.0107V23.5107H19.4334H15.5334C14.4645 23.5107 13.5425 22.9103 13.1062 21.9391C12.6706 20.9696 12.8371 19.8784 13.5423 19.0742C13.5424 19.074 13.5425 19.0739 13.5426 19.0738L26.1582 4.74174C26.1583 4.7416 26.1584 4.74147 26.1585 4.74133C26.9065 3.89487 28.0528 3.60428 29.1031 4.0104L29.1031 4.01043L29.1086 4.01247C30.1607 4.40527 30.8334 5.38355 30.8334 6.51072V17.2607V17.7607H31.3334H35.2335C36.3024 17.7607 37.2243 18.3611 37.6607 19.3323ZM28.1334 5.32738C27.8669 5.32738 27.5317 5.42096 27.2694 5.73642L14.6597 20.0785C14.6594 20.0789 14.6591 20.0792 14.6588 20.0795C14.1976 20.5994 14.3808 21.1462 14.4572 21.3243C14.5396 21.5165 14.8374 22.0274 15.5334 22.0274H20.6834C21.0906 22.0274 21.4334 22.3702 21.4334 22.7774V34.7774C21.4334 35.5016 21.9758 35.7981 22.1912 35.8789C22.3843 35.9513 23.001 36.1165 23.4787 35.554L36.0905 21.2096C36.0908 21.2092 36.0911 21.2089 36.0914 21.2085C36.5525 20.6887 36.3694 20.142 36.293 19.9638C36.2107 19.7716 35.9129 19.2607 35.2168 19.2607H30.0668C29.6596 19.2607 29.3168 18.9179 29.3168 18.5107V6.51072C29.3168 5.83045 28.8383 5.52757 28.6016 5.42636C28.5136 5.38029 28.4272 5.35946 28.3707 5.34872C28.2909 5.33351 28.209 5.32738 28.1334 5.32738Z" fill="white" stroke="white"/>
<path d="M14.1667 8.04395H2.5C2.09281 8.04395 1.75 7.70114 1.75 7.29395C1.75 6.88675 2.09281 6.54395 2.5 6.54395L14.1667 6.54395C14.5739 6.54395 14.9167 6.88675 14.9167 7.29395C14.9167 7.70114 14.5739 8.04395 14.1667 8.04395Z" fill="white" stroke="white"/>
<path d="M12.5 34.7109H2.5C2.09281 34.7109 1.75 34.3681 1.75 33.9609C1.75 33.5537 2.09281 33.2109 2.5 33.2109H12.5C12.9072 33.2109 13.25 33.5537 13.25 33.9609C13.25 34.3681 12.9072 34.7109 12.5 34.7109Z" fill="white" stroke="white"/>
<path d="M7.5 21.3774H2.5C2.09281 21.3774 1.75 21.0346 1.75 20.6274C1.75 20.2203 2.09281 19.8774 2.5 19.8774H7.5C7.90719 19.8774 8.25 20.2203 8.25 20.6274C8.25 21.0346 7.90719 21.3774 7.5 21.3774Z" fill="white" stroke="white"/>
</svg>
