<svg width="24" height="25" viewBox="0 0 24 25" fill="none" xmlns="http://www.w3.org/2000/svg">
<rect y="0.626953" width="24" height="24" rx="12" fill="white"/>
<path d="M10.8583 10.5984C9.64369 10.4265 8.40556 10.63 7.30991 11.1817C6.21426 11.7334 5.31349 12.6069 4.72837 13.6851C4.14325 14.7632 3.90176 15.9945 4.03628 17.2138C4.17081 18.4331 4.67492 19.5822 5.48101 20.5069C6.2871 21.4315 7.35664 22.0877 8.5462 22.3872C9.73577 22.6868 10.9885 22.6155 12.1364 22.1829C13.2843 21.7503 14.2725 20.9771 14.9685 19.967C15.6645 18.9568 16.035 17.758 16.0303 16.5313V9.9506C17.3495 10.8943 18.9326 11.398 20.5546 11.3901V8.15119C19.3547 8.15119 18.2039 7.67453 17.3554 6.82607C16.507 5.97761 16.0303 4.82686 16.0303 3.62695H12.7605V16.5622C12.7594 17.1427 12.5745 17.708 12.2325 18.1771C11.8905 18.6462 11.4088 18.995 10.8564 19.1737C10.3041 19.3523 9.70932 19.3516 9.15737 19.1716C8.60543 18.9917 8.12458 18.6417 7.78367 18.1718C7.44275 17.7019 7.25927 17.1362 7.25947 16.5556C7.25968 15.9751 7.44357 15.4095 7.78482 14.9398C8.12607 14.4702 8.60717 14.1205 9.15924 13.941C9.71132 13.7614 10.3061 13.7611 10.8583 13.9402V10.5984Z" fill="#0834F8"/>
</svg>
