<svg width="24" height="25" viewBox="0 0 24 25" fill="none" xmlns="http://www.w3.org/2000/svg">
<path d="M16 0.626953H8C3.58172 0.626953 0 4.20867 0 8.62695V16.627C0 21.0452 3.58172 24.627 8 24.627H16C20.4183 24.627 24 21.0452 24 16.627V8.62695C24 4.20867 20.4183 0.626953 16 0.626953Z" fill="white"/>
<path d="M11.0251 14.5954L13.1418 17.7146C13.9027 18.836 14.2831 19.3967 14.8533 19.7062C14.869 19.7147 14.8847 19.7231 14.9006 19.7312C15.4767 20.0292 16.1543 20.0292 17.5095 20.0292C18.5918 20.0292 19.1329 20.0292 19.3237 19.6878C19.3285 19.6791 19.3331 19.6703 19.3375 19.6615C19.513 19.3119 19.2091 18.8642 18.6015 17.9687L13.9394 11.0983L17.2671 7.10504C17.6206 6.68076 17.5633 6.0502 17.139 5.69662C16.7147 5.34306 16.0842 5.40038 15.7306 5.82466L12.771 9.37628L11.5243 7.5392C10.7634 6.41782 10.383 5.85714 9.81287 5.54765C9.79714 5.53914 9.7814 5.5308 9.76554 5.5226C9.18935 5.22461 8.51178 5.22461 7.1566 5.22461C6.0744 5.22461 5.53331 5.22461 5.3425 5.56606C5.33766 5.57472 5.33302 5.58348 5.32858 5.59233C5.15318 5.94196 5.457 6.38969 6.06466 7.28518L9.85674 12.8735L5.55346 18.0372C5.1999 18.4616 5.25722 19.0922 5.6815 19.4458C6.10578 19.7992 6.73634 19.7419 7.08991 19.3176L7.68755 18.6004L11.0251 14.5954Z" fill="#0834F8"/>
</svg>
