<svg width="24" height="25" viewBox="0 0 24 25" fill="none" xmlns="http://www.w3.org/2000/svg">
<g clip-path="url(#clip0_369_1188)">
<path d="M22.2234 0.626953H1.77187C0.792187 0.626953 0 1.40039 0 2.35664V22.8926C0 23.8488 0.792187 24.627 1.77187 24.627H22.2234C23.2031 24.627 24 23.8488 24 22.8973V2.35664C24 1.40039 23.2031 0.626953 22.2234 0.626953ZM7.12031 21.0785H3.55781V9.62226H7.12031V21.0785ZM5.33906 8.06133C4.19531 8.06133 3.27188 7.13789 3.27188 5.99883C3.27188 4.85977 4.19531 3.93633 5.33906 3.93633C6.47813 3.93633 7.40156 4.85977 7.40156 5.99883C7.40156 7.1332 6.47813 8.06133 5.33906 8.06133ZM20.4516 21.0785H16.8937V15.5098C16.8937 14.1832 16.8703 12.4723 15.0422 12.4723C13.1906 12.4723 12.9094 13.9207 12.9094 15.416V21.0785H9.35625V9.62226H12.7687V11.1879H12.8156C13.2891 10.2879 14.4516 9.33633 16.1813 9.33633C19.7859 9.33633 20.4516 11.7082 20.4516 14.7926V21.0785Z" fill="white"/>
</g>
<defs>
<clipPath id="clip0_369_1188">
<rect width="24" height="24" fill="white" transform="translate(0 0.626953)"/>
</clipPath>
</defs>
</svg>
