<svg width="24" height="25" viewBox="0 0 24 25" fill="none" xmlns="http://www.w3.org/2000/svg">
<g clip-path="url(#clip0_369_1191)">
<path d="M24 12.627C24 5.99953 18.6274 0.626953 12 0.626953C5.37258 0.626953 0 5.99953 0 12.627C0 18.6164 4.3882 23.5809 10.125 24.4812V16.0957H7.07812V12.627H10.125V9.9832C10.125 6.9757 11.9166 5.31445 14.6576 5.31445C15.9701 5.31445 17.3438 5.54883 17.3438 5.54883V8.50195H15.8306C14.34 8.50195 13.875 9.42703 13.875 10.377V12.627H17.2031L16.6711 16.0957H13.875V24.4812C19.6118 23.5809 24 18.6164 24 12.627Z" fill="white"/>
</g>
<defs>
<clipPath id="clip0_369_1191">
<rect width="24" height="24" fill="white" transform="translate(0 0.626953)"/>
</clipPath>
</defs>
</svg>
