<svg width="24" height="25" viewBox="0 0 24 25" fill="none" xmlns="http://www.w3.org/2000/svg">
<rect y="0.626953" width="24" height="24" rx="12" fill="white"/>
<path d="M12 15.752C13.7259 15.752 15.125 14.3528 15.125 12.627C15.125 10.9011 13.7259 9.50195 12 9.50195C10.2741 9.50195 8.875 10.9011 8.875 12.627C8.875 14.3528 10.2741 15.752 12 15.752Z" stroke="#0834F8" stroke-width="1.66667" stroke-miterlimit="10"/>
<path d="M15.4375 5.43945H8.5625C6.49143 5.43945 4.8125 7.11839 4.8125 9.18945V16.0645C4.8125 18.1355 6.49143 19.8145 8.5625 19.8145H15.4375C17.5086 19.8145 19.1875 18.1355 19.1875 16.0645V9.18945C19.1875 7.11839 17.5086 5.43945 15.4375 5.43945Z" stroke="#0834F8" stroke-width="1.66667" stroke-linecap="round" stroke-linejoin="round"/>
<path d="M16.0625 9.50195C16.5803 9.50195 17 9.08222 17 8.56445C17 8.04669 16.5803 7.62695 16.0625 7.62695C15.5447 7.62695 15.125 8.04669 15.125 8.56445C15.125 9.08222 15.5447 9.50195 16.0625 9.50195Z" fill="#0834F8"/>
</svg>
