<svg width="120" height="121" viewBox="0 0 120 121" fill="none" xmlns="http://www.w3.org/2000/svg">
<rect y="0.627441" width="120" height="120" rx="60" fill="#313235"/>
<path d="M60.001 54.7C66.7114 54.7001 72.167 60.1565 72.167 66.8669C72.1668 73.5772 66.7112 79.0328 60.001 79.033C53.2906 79.033 47.8342 73.5773 47.834 66.8669C47.834 60.1564 53.2905 54.7 60.001 54.7ZM60.001 57.7C54.9515 57.7 50.834 61.8175 50.834 66.8669C50.8342 71.9163 54.9516 76.033 60.001 76.033C65.0502 76.0328 69.1668 71.9162 69.167 66.8669C69.167 61.8176 65.0503 57.7001 60.001 57.7Z" fill="#B9B9B9" stroke="#B9B9B9"/>
<path d="M56.166 63.1403C56.708 62.5983 57.5886 62.5644 58.1729 63.0387L58.2852 63.1403L63.9121 68.7672C64.454 69.3092 64.4881 70.1898 64.0137 70.774L63.9121 70.8864C63.6109 71.1876 63.2337 71.3268 62.8525 71.3268C62.519 71.3268 62.1884 71.2202 61.9092 70.9918L61.793 70.8864L56.166 65.2594C55.6242 64.7174 55.5901 63.8368 56.0645 63.2526L56.166 63.1403Z" fill="#B9B9B9" stroke="#B9B9B9"/>
<path d="M61.7148 63.2202C62.2569 62.6783 63.1375 62.6443 63.7217 63.1187L63.834 63.2202C64.376 63.7622 64.4098 64.6428 63.9355 65.2271L63.834 65.3394L58.2129 70.9595C57.8963 71.2523 57.5116 71.4067 57.1475 71.4067C56.8139 71.4067 56.4833 71.3002 56.2041 71.0718L56.0879 70.9663C55.5459 70.4243 55.5121 69.5437 55.9863 68.9595L56.0879 68.8472L61.7148 63.2202Z" fill="#B9B9B9" stroke="#B9B9B9"/>
<path d="M46.667 43.5266H73.333C79.0624 43.5266 82.861 44.8231 85.0947 47.3079V47.3069C87.5492 50.0447 87.6576 53.6728 87.4209 56.4348L87.3691 56.9749V56.9797L85.3691 78.2815C85.0798 81.0426 84.3779 83.7321 82.3174 85.7424C80.2601 87.7493 76.757 89.1662 70.667 89.1663H49.333C43.2431 89.1662 39.74 87.7492 37.6826 85.7454C35.6221 83.7382 34.9201 81.0553 34.6309 78.3079H34.6299L32.6309 56.9534V56.9475L32.5791 56.4124C32.3425 53.6732 32.4501 50.0447 34.9043 47.3069L34.9053 47.3079C37.1653 44.7969 40.9631 43.5266 46.667 43.5266ZM46.667 46.5002C42.1392 46.5002 38.8496 47.3753 37.123 49.304C35.6704 50.9048 35.2585 53.3005 35.6084 56.6458V56.6467L37.6084 78.0061L37.6094 78.0139C37.8371 80.1302 38.2484 82.2288 39.9443 83.7639C41.6313 85.2909 44.4819 86.1662 49.333 86.1663H70.667C75.5051 86.1662 78.3558 85.2912 80.0459 83.761C81.5326 82.415 82.0381 80.6349 82.2939 78.7834L82.3906 77.9866V77.9797L84.3906 56.678C84.7415 53.3039 84.3307 50.906 82.877 49.304H82.876C81.1493 47.3756 77.8604 46.5002 73.333 46.5002H46.667Z" fill="#B9B9B9" stroke="#B9B9B9"/>
<path d="M57.8672 32.8334H62.1338C67.3155 32.8334 69.7432 34.2664 70.9297 36.1107C72.1525 38.0116 72.167 40.4851 72.167 42.8666V45.0004C72.1668 45.8174 71.4841 46.5004 70.667 46.5004C69.8501 46.5002 69.1672 45.8173 69.167 45.0004V42.8666C69.167 41.6903 69.1681 40.6544 69.0615 39.7826C68.9544 38.9067 68.7332 38.134 68.2441 37.5111C67.7491 36.8806 67.027 36.4636 66.0381 36.2035C65.0577 35.9456 63.7825 35.8334 62.1338 35.8334H57.8672C56.2185 35.8334 54.9432 35.9456 53.9629 36.2035C52.9743 36.4636 52.2529 36.8808 51.7578 37.5111C51.2687 38.134 51.0465 38.9067 50.9395 39.7826C50.8329 40.6544 50.834 41.6903 50.834 42.8666V45.0004C50.8338 45.8174 50.1511 46.5004 49.334 46.5004C48.5169 46.5004 47.8342 45.8174 47.834 45.0004V42.8666L47.8369 41.9711C47.8564 39.876 48.0012 37.7741 49.0713 36.1107C50.2207 34.324 52.535 32.9231 57.3896 32.8373L57.8672 32.8334Z" fill="#B9B9B9" stroke="#B9B9B9"/>
<path d="M84.8271 57.1108C85.4466 56.6606 86.3309 56.7601 86.8301 57.3286L86.9238 57.4487L86.9287 57.4536C87.4054 58.1091 87.2681 59.052 86.5811 59.5571C81.8913 62.9551 76.6772 65.406 71.041 66.8306C70.9188 66.8548 70.7999 66.8735 70.6924 66.8735C70.0173 66.8734 69.4142 66.4173 69.2305 65.728C69.0442 64.9747 69.4577 64.2112 70.1621 63.9556L70.3076 63.9116C75.241 62.672 79.8431 60.5782 84.001 57.6978L84.8271 57.1108Z" fill="#B9B9B9" stroke="#B9B9B9"/>
<path d="M33.7207 58.1868C34.1783 57.5103 35.1194 57.3283 35.7979 57.7854V57.7864C39.7937 60.5177 44.1232 62.5145 48.7402 63.7542L49.668 63.9924C50.4708 64.1946 50.9677 64.994 50.7676 65.8147L50.7637 65.8323C50.6289 66.487 50.0229 66.9534 49.333 66.9534C49.2246 66.9533 49.1093 66.9351 48.9492 66.9084C43.9887 65.6964 39.3045 63.6526 34.9824 60.8401L34.1221 60.2668L34.1201 60.2659L33.999 60.1741C33.4612 59.7227 33.3102 58.9367 33.6426 58.3167L33.7207 58.1868Z" fill="#B9B9B9" stroke="#B9B9B9"/>
</svg>
