<svg width="16" height="17" viewBox="0 0 16 17" fill="none" xmlns="http://www.w3.org/2000/svg">
<path d="M7.78809 5.43152C6.74463 5.53799 5.91992 6.42206 5.91992 7.50085V7.49402C5.91997 6.48968 6.63456 5.6557 7.58105 5.46277L7.78809 5.43152ZM8.21191 5.43152C9.04865 5.51665 9.74239 6.09994 9.98633 6.88171L10.0371 7.08093C9.84182 6.13218 8.99869 5.42081 8 5.42078L8.21191 5.43152Z" fill="#B9B9B9" stroke="#B9B9B9"/>
<path d="M7.99902 1.96075H8.00586C8.40232 1.96076 8.80699 2.00099 9.20898 2.08185C8.79386 1.99928 8.38479 1.96075 7.99902 1.96075ZM7.99902 1.96075C7.74438 1.96076 7.47973 1.97743 7.20996 2.01251C7.40101 1.98746 7.59184 1.97156 7.78125 1.96466L7.99902 1.96075ZM13.748 7.93341C13.6749 10.3539 12.2563 12.4399 10.7686 13.9666L10.4053 14.327C9.72721 14.9752 8.85924 15.3006 7.99902 15.3006C7.19212 15.3006 6.37812 15.0147 5.7207 14.4442L5.5918 14.326C3.71566 12.5195 1.78051 9.7917 2.35059 6.60236L2.41309 6.29181C2.49943 5.91145 2.61733 5.5572 2.76172 5.22931C2.62156 5.55403 2.50486 5.90649 2.41797 6.28888C1.63477 9.70448 3.78925 12.586 5.59961 14.3221V14.3211C6.94659 15.6205 9.05847 15.6198 10.4053 14.3201L10.4062 14.3211C11.9123 12.8715 13.6596 10.6237 13.748 7.93341ZM9.24316 2.08868C9.36075 2.11303 9.47795 2.14124 9.59473 2.17267C9.47721 2.14154 9.36016 2.11262 9.24316 2.08868ZM6.44141 2.16388C6.5336 2.1396 6.62605 2.11734 6.71875 2.09747C6.62636 2.11698 6.5341 2.13989 6.44141 2.16388ZM6.83105 2.07501C6.9462 2.05256 7.06147 2.03315 7.17676 2.0174C7.06221 2.03291 6.94699 2.05272 6.83105 2.07501ZM13.751 7.57013C13.7534 7.66306 13.7525 7.75548 13.751 7.84747C13.7528 7.75551 13.7532 7.66309 13.751 7.57013Z" fill="#B9B9B9" stroke="#B9B9B9"/>
</svg>
