<svg width="64" height="64" viewBox="0 0 64 64" fill="none" xmlns="http://www.w3.org/2000/svg">
<rect x="2" y="2.00049" width="60" height="60" rx="30" fill="white"/>
<rect x="2" y="2.00049" width="60" height="60" rx="30" stroke="#1C1C1C" stroke-width="4"/>
<path d="M30.5455 18.5862L30.5438 18.5871L21.8649 23.2666C21.8648 23.2666 21.8647 23.2667 21.8645 23.2667C21.2453 23.6028 20.8465 24.2703 20.8465 25.027C20.8465 25.7836 21.2451 26.4511 21.8643 26.7872C21.8645 26.7873 21.8647 26.7874 21.8649 26.7875L30.5438 31.4669L30.5438 31.4669L30.5522 31.4716C30.9879 31.7174 31.4879 31.8337 31.9998 31.8337C32.5025 31.8337 33.0087 31.7082 33.4717 31.4656L42.1481 26.7875C42.1483 26.7874 42.1485 26.7873 42.1487 26.7872C42.7678 26.4512 43.1665 25.7837 43.1665 25.027C43.1665 24.2704 42.7678 23.6029 42.1486 23.2668C42.1485 23.2667 42.1483 23.2667 42.1481 23.2666L33.4698 18.5875C32.55 18.0931 31.4489 18.0945 30.5455 18.5862ZM32.9838 30.5871L32.9838 30.5872L32.9799 30.5892C32.3538 30.9196 31.6325 30.9196 31.0065 30.5892L31.0064 30.5892L31.0025 30.5871L22.3225 25.9071L22.3225 25.9072L22.3147 25.9028C22.0777 25.7695 21.9546 25.5662 21.8932 25.4065C21.8335 25.2515 21.8198 25.1086 21.8198 25.027C21.8198 24.963 21.8243 24.8122 21.8852 24.6454C21.9481 24.4734 22.0793 24.2661 22.3323 24.1417L30.9999 19.4683C31.3131 19.295 31.6622 19.207 31.9998 19.207C32.3374 19.207 32.6864 19.295 32.9996 19.4683L41.6604 24.1318C41.6611 24.1321 41.6617 24.1325 41.6623 24.1328C42.1636 24.3995 42.1665 24.94 42.1665 25.027C42.1665 25.0911 42.1621 25.2419 42.1011 25.4086C42.0383 25.5807 41.907 25.7879 41.654 25.9124L32.9838 30.5871Z" fill="#1C1C1C" stroke="#1C1C1C"/>
<path d="M35.8432 45.58L35.8438 45.5797L43.9215 41.5543C43.9218 41.5541 43.9222 41.5539 43.9226 41.5537C45.101 40.9581 45.8335 39.7706 45.8335 38.4539V30.8273C45.8335 30.1346 45.4839 29.5094 44.899 29.1469C44.2974 28.7825 43.5872 28.7528 42.9704 29.0611L42.9698 29.0614L34.8922 33.0869C34.8918 33.0871 34.8914 33.0873 34.8911 33.0875C33.7119 33.6834 32.9802 34.8582 32.9802 36.1873V43.8139C32.9802 44.5072 33.3304 45.133 33.9164 45.4953L33.9164 45.4953L33.921 45.4982C34.2358 45.6975 34.5952 45.7939 34.9602 45.7939C35.2527 45.7939 35.5631 45.7201 35.8432 45.58ZM44.3304 29.9667L44.3583 29.9806L44.3842 29.9979C44.52 30.0885 44.8335 30.3401 44.8335 30.8273V38.4539C44.8335 39.3865 44.3162 40.2416 43.4771 40.6611L35.4107 44.701L35.4104 44.7011C34.9741 44.9193 34.6072 44.7431 34.4966 44.6878L34.4687 44.6739L34.4428 44.6566C34.307 44.5661 33.9935 44.3144 33.9935 43.8273V36.2006C33.9935 35.2681 34.5107 34.4131 35.3496 33.9935C35.3497 33.9935 35.3498 33.9934 35.3499 33.9934L43.4163 29.9535L43.4166 29.9534C43.5648 29.8792 43.7079 29.8473 43.8535 29.8473C44.077 29.8473 44.2543 29.9286 44.3304 29.9667Z" fill="#1C1C1C" stroke="#1C1C1C"/>
<path d="M30.0792 45.4981L30.0791 45.4981L30.0838 45.4952C30.6698 45.1329 31.02 44.5071 31.02 43.8138V36.1872C31.02 34.8703 30.2873 33.6827 29.1087 33.0872C29.1085 33.0871 29.1082 33.0869 29.108 33.0868L21.0431 29.0477C21.043 29.0477 21.043 29.0477 21.0429 29.0476C20.4241 28.7383 19.7016 28.7706 19.1163 29.1325C18.5302 29.4947 18.18 30.1205 18.18 30.8138V38.4405C18.18 39.7574 18.9128 40.9451 20.0914 41.5405C20.0917 41.5406 20.0919 41.5407 20.0921 41.5408L28.1573 45.5801L28.1639 45.5834L28.1704 45.5869C28.4332 45.7284 28.736 45.7938 29.04 45.7938C29.405 45.7938 29.7644 45.6974 30.0792 45.4981ZM20.5836 29.9533L20.5839 29.9534L28.6503 33.9933C28.6504 33.9933 28.6505 33.9934 28.6506 33.9934C29.4878 34.4122 30.0067 35.2527 30.0067 36.2005V43.8272C30.0067 44.3143 29.6932 44.566 29.5574 44.6565C29.3701 44.7814 29.0041 44.9082 28.5897 44.701L28.5894 44.7009L20.5231 40.661C19.684 40.2415 19.1667 39.3864 19.1667 38.4538V30.8272C19.1667 30.34 19.4802 30.0884 19.616 29.9978L19.6419 29.9805L19.6697 29.9666C19.7459 29.9285 19.9232 29.8472 20.1467 29.8472C20.2923 29.8472 20.4354 29.8792 20.5836 29.9533Z" fill="#1C1C1C" stroke="#1C1C1C"/>
</svg>
