<svg width="64" height="64" viewBox="0 0 64 64" fill="none" xmlns="http://www.w3.org/2000/svg">
<rect x="2" y="2" width="60" height="60" rx="30" fill="white"/>
<rect x="2" y="2" width="60" height="60" rx="30" stroke="#1C1C1C" stroke-width="4"/>
<path d="M24 28.6466C23.7295 28.6466 23.5 28.8761 23.5 29.1466V34.8667C23.5 35.1372 23.7295 35.3667 24 35.3667C24.2705 35.3667 24.5 35.1372 24.5 34.8667V29.1466C24.5 28.8671 24.2749 28.6466 24 28.6466Z" fill="#1C1C1C" stroke="#1C1C1C"/>
<path d="M28 26.74C27.7295 26.74 27.5 26.9695 27.5 27.24V36.76C27.5 37.0305 27.7295 37.26 28 37.26C28.2705 37.26 28.5 37.0305 28.5 36.76V27.24C28.5 26.9605 28.2749 26.74 28 26.74Z" fill="#1C1C1C" stroke="#1C1C1C"/>
<path d="M32 24.8334C31.7295 24.8334 31.5 25.0629 31.5 25.3334V38.6667C31.5 38.9373 31.7295 39.1667 32 39.1667C32.2705 39.1667 32.5 38.9373 32.5 38.6667V25.3334C32.5 25.0629 32.2705 24.8334 32 24.8334Z" fill="#1C1C1C" stroke="#1C1C1C"/>
<path d="M36 26.74C35.7295 26.74 35.5 26.9695 35.5 27.24V36.76C35.5 37.0305 35.7295 37.26 36 37.26C36.2705 37.26 36.5 37.0305 36.5 36.76V27.24C36.5 26.9605 36.2749 26.74 36 26.74Z" fill="#1D1D1D" stroke="#1D1D1D"/>
<path d="M40 28.6466C39.7295 28.6466 39.5 28.8761 39.5 29.1466V34.8667C39.5 35.1372 39.7295 35.3667 40 35.3667C40.2705 35.3667 40.5 35.1372 40.5 34.8667V29.1466C40.5 28.8671 40.2749 28.6466 40 28.6466Z" fill="#1D1D1D" stroke="#1D1D1D"/>
<path d="M31.9998 18.1666C24.3693 18.1666 18.1665 24.3694 18.1665 31.9999C18.1665 39.6304 24.3693 45.8333 31.9998 45.8333C39.6304 45.8333 45.8332 39.6304 45.8332 31.9999C45.8332 24.3694 39.6304 18.1666 31.9998 18.1666ZM31.9998 44.8333C24.9237 44.8333 19.1665 39.0761 19.1665 31.9999C19.1665 24.9238 24.9237 19.1666 31.9998 19.1666C39.076 19.1666 44.8332 24.9238 44.8332 31.9999C44.8332 39.0761 39.076 44.8333 31.9998 44.8333Z" fill="#1D1D1D" stroke="#1D1D1D"/>
</svg>
