<svg width="33" height="25" viewBox="0 0 33 25" fill="none" xmlns="http://www.w3.org/2000/svg">
<path d="M25.2269 15.0558C25.7138 15.0558 26.126 15.4947 25.9139 15.933C25.8962 15.9697 25.8778 16.0059 25.8586 16.0418C25.6767 16.5356 25.3928 16.9636 25.1104 17.3949C24.8743 17.8614 24.458 18.1773 24.1517 18.5765C23.831 18.9644 23.3939 19.2225 23.0478 19.5448C22.708 19.8815 22.2629 20.0498 21.9088 20.2871C21.5387 20.5003 21.2164 20.736 20.8718 20.8482L20.012 21.2041C19.5771 21.3858 19.34 21.8578 19.4539 22.3151L19.7928 23.676C19.9238 24.2022 20.455 24.5238 20.9819 24.3961C21.2866 24.3191 21.6583 24.2294 22.081 24.1219C22.5134 24.0418 22.9744 23.8221 23.4881 23.6217C23.9953 23.3941 24.5824 23.2402 25.128 22.8746C25.6767 22.5251 26.3101 22.2334 26.8684 21.7652C27.4092 21.2827 28.0616 20.8642 28.5434 20.2502C29.0698 19.6763 29.5899 19.0734 29.9935 18.3873C30.4609 17.7332 30.7784 17.0149 31.1134 16.3047C31.4165 15.5945 31.6605 14.8682 31.8599 14.1628C32.238 12.7488 32.4071 11.4053 32.4725 10.2558C32.5268 9.10471 32.4949 8.14759 32.4279 7.45501C32.4039 7.12795 32.3593 6.81052 32.3274 6.59088L32.2907 6.34327C32.289 6.33156 32.2776 6.32383 32.2661 6.3265C32.255 6.32906 32.2441 6.32206 32.2417 6.31099C31.9557 4.98681 31.3043 3.7702 30.3621 2.80061C29.415 1.8261 28.2128 1.14095 26.8945 0.824429C25.5762 0.507902 24.1956 0.572929 22.9126 1.01199C21.6295 1.45105 20.4963 2.2462 19.6441 3.30546C18.7919 4.36472 18.2556 5.6448 18.097 6.99762C17.9385 8.35044 18.1643 9.72073 18.7484 10.95C19.3324 12.1792 20.2508 13.2172 21.3972 13.9437C22.5437 14.6703 23.8715 15.0559 25.2269 15.0558ZM7.67912 15.0558C8.16607 15.0558 8.57822 15.4947 8.36615 15.933C8.34842 15.9697 8.33001 16.0059 8.31083 16.0418C8.12898 16.5356 7.84502 16.9636 7.56266 17.3949C7.32656 17.8614 6.91021 18.1773 6.60392 18.5765C6.28327 18.9644 5.84617 19.2225 5.5 19.5448C5.16021 19.8815 4.71514 20.0498 4.36099 20.2871C3.99089 20.5003 3.66866 20.736 3.32408 20.8482L2.46424 21.2041C2.02933 21.3858 1.79221 21.8578 1.9061 22.3151L2.24499 23.676C2.37601 24.2022 2.90722 24.5238 3.43415 24.3961C3.73885 24.3191 4.11054 24.2294 4.53328 24.1219C4.9656 24.0418 5.42662 23.8221 5.94029 23.6217C6.44599 23.3925 7.03463 23.2402 7.58021 22.873C8.12898 22.5235 8.76229 22.2318 9.32063 21.7636C9.86142 21.2811 10.5139 20.8626 10.9956 20.2502C11.5221 19.6763 12.0421 19.0734 12.4457 18.3873C12.9131 17.7332 13.2306 17.0149 13.5656 16.3047C13.8687 15.5945 14.1128 14.8682 14.3122 14.1628C14.6902 12.7488 14.8593 11.4053 14.9247 10.2558C14.979 9.10471 14.9471 8.14759 14.8801 7.45501C14.8562 7.12795 14.8115 6.81052 14.7796 6.59088L14.7429 6.34327C14.7412 6.33156 14.7298 6.32383 14.7183 6.3265C14.7073 6.32906 14.6963 6.32206 14.6939 6.31099C14.4079 4.98681 13.7565 3.7702 12.8143 2.80061C11.8673 1.8261 10.665 1.14095 9.34673 0.824429C8.02842 0.507902 6.64787 0.572929 5.3648 1.01199C4.08172 1.45105 2.94855 2.2462 2.09636 3.30546C1.24417 4.36472 0.707792 5.6448 0.549269 6.99762C0.390747 8.35044 0.616562 9.72073 1.20059 10.95C1.78461 12.1792 2.70299 13.2172 3.84947 13.9437C4.99596 14.6703 6.3237 15.0559 7.67912 15.0558Z" fill="#0834F8"/>
</svg>
