<svg width="40" height="41" viewBox="0 0 40 41" fill="none" xmlns="http://www.w3.org/2000/svg">
<path d="M14.3365 34.163L14.3366 34.1629L14.327 34.1559C14.0614 33.9634 13.7063 33.6073 13.4852 32.9933C13.2637 32.3786 13.1627 31.4666 13.4705 30.1404L13.4706 30.1402L14.4199 26.0432C14.42 26.0426 14.4201 26.042 14.4203 26.0414C14.4898 25.7472 14.4414 25.4061 14.3645 25.1349C14.2868 24.8605 14.1497 24.5502 13.9482 24.3354L13.9427 24.3295L13.937 24.3238L10.6204 21.0072C9.80383 20.1906 9.45706 19.4567 9.32806 18.87C9.19859 18.2812 9.28059 17.8043 9.37757 17.4926C9.47269 17.1868 9.68016 16.7527 10.1273 16.3481C10.5726 15.9452 11.2813 15.5484 12.4164 15.3538C12.4169 15.3537 12.4174 15.3536 12.4179 15.3535L16.6615 14.6546C16.6621 14.6545 16.6628 14.6544 16.6634 14.6543C16.9391 14.6102 17.2244 14.4465 17.4334 14.2915C17.6399 14.1384 17.8792 13.9142 17.9996 13.6633L20.3474 8.96765C20.8777 7.90702 21.4746 7.33462 21.9974 7.02381C22.5215 6.71214 23.0039 6.64404 23.3335 6.64404C23.663 6.64404 24.1454 6.71214 24.6696 7.02381C25.1923 7.33462 25.7893 7.90702 26.3196 8.96765L28.6696 13.6677L28.6695 13.6677L28.6749 13.678C28.7996 13.9134 29.0283 14.1329 29.2376 14.2899C29.4433 14.4441 29.7255 14.6098 30.0036 14.6543C30.0042 14.6544 30.0048 14.6545 30.0055 14.6546L34.2522 15.3541L34.2524 15.3541C35.3862 15.5405 36.094 15.9369 36.5389 16.3412C36.9858 16.7473 37.1939 17.1855 37.2894 17.4926C37.3864 17.8043 37.4684 18.2812 37.3389 18.87C37.2099 19.4567 36.8631 20.1906 36.0466 21.0072L32.7299 24.3238C32.517 24.5367 32.3786 24.8572 32.3021 25.1297C32.2256 25.4025 32.1772 25.7474 32.2466 26.0412C32.2468 26.0419 32.2469 26.0425 32.2471 26.0432L33.1963 30.1398C33.1963 30.1399 33.1963 30.14 33.1963 30.1401C33.5044 31.4754 33.4031 32.3871 33.182 32.9992C32.9613 33.6098 32.6071 33.9623 32.34 34.1559C32.0701 34.3516 31.626 34.5822 30.977 34.6069C30.3261 34.6317 29.4245 34.451 28.2386 33.7474L24.2574 31.382C24.2571 31.3818 24.2569 31.3817 24.2566 31.3815C23.9802 31.216 23.6187 31.1607 23.3168 31.1607C23.0151 31.1607 22.6539 31.2159 22.3776 31.3812C22.3771 31.3814 22.3767 31.3817 22.3762 31.382L18.3948 33.7475L18.3947 33.7475L18.3902 33.7503C17.3042 34.4113 16.4264 34.6107 15.8002 34.6107C15.0868 34.6107 14.6082 34.37 14.3365 34.163ZM19.3363 14.3371L19.3362 14.3371L19.3348 14.3401C18.9072 15.2094 17.8623 15.9764 16.9025 16.134L16.9022 16.134L12.6522 16.834L12.6522 16.834L12.6471 16.8349C12.1294 16.9257 11.722 17.0714 11.419 17.2521C11.1275 17.4261 10.8826 17.6639 10.7896 17.9616C10.6975 18.2562 10.759 18.589 10.8977 18.8999C11.0414 19.2219 11.2908 19.5752 11.6632 19.9476L12.0168 19.5941L11.6632 19.9476L14.9799 23.2643C15.3334 23.6177 15.6215 24.1379 15.7887 24.7145C15.9558 25.2909 15.9899 25.8819 15.8796 26.3652C15.8795 26.3655 15.8795 26.3657 15.8794 26.366L14.9306 30.461C14.9304 30.4616 14.9303 30.4622 14.9301 30.4628C14.7791 31.0944 14.7457 31.6058 14.7861 31.9992C14.8062 32.1958 14.8457 32.3716 14.904 32.5213C14.959 32.6626 15.0454 32.818 15.1835 32.931L15.1945 32.94L15.206 32.9484C15.3598 33.0602 15.5431 33.097 15.6916 33.1074C15.8522 33.1186 16.0322 33.103 16.2254 33.0626C16.612 32.9818 17.0893 32.7937 17.6413 32.4558L21.6381 30.091L21.6398 30.09C22.5998 29.5169 24.0848 29.5189 25.0243 30.0883L25.0281 30.0906L29.0114 32.4572L29.0136 32.4585C29.5725 32.7868 30.0517 32.9733 30.4371 33.0559C30.6292 33.097 30.8086 33.1146 30.9688 33.1055C31.1161 33.097 31.3035 33.0629 31.4609 32.9484C31.6151 32.8363 31.7064 32.6729 31.7616 32.5341C31.8212 32.3844 31.8607 32.2081 31.8809 32.0117C31.9212 31.6182 31.8878 31.1027 31.737 30.4635C31.7369 30.4631 31.7368 30.4628 31.7368 30.4625L30.7879 26.3675C30.7878 26.367 30.7877 26.3665 30.7876 26.366C30.5585 25.3468 30.9445 23.9925 31.6836 23.2677L31.687 23.2643L35.0037 19.9476L34.6502 19.5941L35.0037 19.9476C35.3779 19.5734 35.6268 19.2155 35.7699 18.8923C35.9053 18.5862 35.9727 18.2472 35.8745 17.9526L35.4001 18.1107L35.8745 17.9526C35.78 17.6693 35.539 17.4346 35.2507 17.2601C34.9488 17.0773 34.5412 16.9264 34.0199 16.8349L34.0199 16.8349L34.0147 16.834L29.7647 16.134L29.7645 16.134C28.8046 15.9764 27.7597 15.2094 27.3322 14.34L27.3307 14.3371L24.9807 9.6371C24.7355 9.14664 24.468 8.78809 24.2014 8.54523C23.9479 8.31433 23.6447 8.14404 23.3335 8.14404C23.0223 8.14404 22.719 8.31433 22.4655 8.54523C22.1989 8.78809 21.9315 9.14664 21.6863 9.6371L19.3363 14.3371Z" fill="white" stroke="white"/>
<path d="M13.3335 9.71094H3.3335C2.9263 9.71094 2.5835 9.36813 2.5835 8.96094C2.5835 8.55375 2.92631 8.21094 3.3335 8.21094H13.3335C13.7407 8.21094 14.0835 8.55375 14.0835 8.96094C14.0835 9.36813 13.7407 9.71094 13.3335 9.71094Z" fill="white" stroke="white"/>
<path d="M8.3335 33.0439H3.3335C2.92631 33.0439 2.5835 32.7011 2.5835 32.2939C2.5835 31.8868 2.92631 31.5439 3.3335 31.5439H8.3335C8.74069 31.5439 9.0835 31.8868 9.0835 32.2939C9.0835 32.7011 8.74069 33.0439 8.3335 33.0439Z" fill="white" stroke="white"/>
<path d="M5.00016 21.3774H3.3335C2.92631 21.3774 2.5835 21.0346 2.5835 20.6274C2.5835 20.2203 2.92631 19.8774 3.3335 19.8774H5.00016C5.40735 19.8774 5.75016 20.2203 5.75016 20.6274C5.75016 21.0346 5.40735 21.3774 5.00016 21.3774Z" fill="white" stroke="white"/>
</svg>
