<svg width="64" height="64" viewBox="0 0 64 64" fill="none" xmlns="http://www.w3.org/2000/svg">
<rect x="2" y="2" width="60" height="60" rx="30" fill="white"/>
<rect x="2" y="2" width="60" height="60" rx="30" stroke="#1C1C1C" stroke-width="4"/>
<path d="M31.9598 18.1666C24.3423 18.1666 18.1265 24.3697 18.1265 31.9999C18.1265 39.6301 24.3423 45.8333 31.9598 45.8333C39.5773 45.8333 45.7931 39.6301 45.7931 31.9999C45.7931 24.3694 39.5903 18.1666 31.9598 18.1666ZM31.9598 44.8333C24.8837 44.8333 19.1265 39.0761 19.1265 31.9999C19.1265 24.9238 24.8837 19.1666 31.9598 19.1666C39.0359 19.1666 44.7931 24.9238 44.7931 31.9999C44.7931 39.0761 39.0359 44.8333 31.9598 44.8333Z" fill="#1C1C1C" stroke="#1C1C1C"/>
<path d="M32.2569 36.8735L32.2571 36.8734L36.1236 34.6469C36.1236 34.6468 36.1237 34.6468 36.1238 34.6467C37.4994 33.8535 38.1667 32.7963 38.1667 31.6933C38.1667 30.6028 37.4984 29.5326 36.1238 28.74C36.1237 28.7399 36.1236 28.7399 36.1236 28.7398L32.2571 26.5133L32.2571 26.5134L32.2504 26.5094C31.4886 26.0547 30.7361 25.8467 30.08 25.8467C29.5785 25.8467 29.1047 25.9715 28.689 26.2069C27.7409 26.7594 27.1533 27.8697 27.1533 29.4533V33.92C27.1533 35.5087 27.731 36.6172 28.678 37.1678C29.6238 37.7176 30.8796 37.6677 32.2569 36.8735ZM31.7658 27.3646L31.7658 27.3646L31.7695 27.3667L35.6362 29.5934L35.6377 29.5943C36.5138 30.1029 37.18 30.8338 37.18 31.68C37.18 32.5287 36.4964 33.259 35.6408 33.7639L35.6408 33.764L35.6362 33.7666L31.7733 35.9911C31.1955 36.3371 30.6139 36.54 30.08 36.54C29.775 36.54 29.4538 36.4737 29.1838 36.3094C28.444 35.8772 28.1533 34.933 28.1533 33.92V29.4533C28.1533 28.4605 28.4409 27.4925 29.1913 27.0729C29.9268 26.6406 30.9039 26.878 31.7658 27.3646Z" fill="#1C1C1C" stroke="#1C1C1C"/>
</svg>
